<svg width="177" height="170" viewBox="0 0 177 170" fill="none" xmlns="http://www.w3.org/2000/svg">
<path d="M88.1605 32.1622C85.333 32.1622 82.5689 31.3538 80.2179 29.8392C77.8669 28.3246 76.0345 26.1719 74.9524 23.6532C73.8704 21.1346 73.5873 18.3631 74.1389 15.6893C74.6905 13.0155 76.0521 10.5595 78.0515 8.63179C80.0509 6.70409 82.5982 5.39131 85.3714 4.85946C88.1446 4.32761 91.0191 4.60058 93.6315 5.64384C96.2438 6.6871 98.4765 8.4538 100.047 10.7205C101.618 12.9873 102.457 15.6522 102.457 18.3784C102.457 22.0341 100.951 25.54 98.2695 28.125C95.5884 30.71 91.9521 32.1622 88.1605 32.1622ZM88.1605 9.18921C86.2755 9.18921 84.4328 9.72814 82.8654 10.7379C81.2981 11.7476 80.0765 13.1827 79.3551 14.8618C78.6338 16.5409 78.445 18.3886 78.8128 20.1711C79.1805 21.9536 80.0882 23.591 81.4212 24.8761C82.7541 26.1613 84.4523 27.0364 86.3011 27.391C88.1499 27.7456 90.0663 27.5636 91.8078 26.8681C93.5493 26.1726 95.0379 24.9948 96.0851 23.4836C97.1324 21.9725 97.6914 20.1958 97.6914 18.3784C97.6914 15.9413 96.6872 13.604 94.8998 11.8807C93.1125 10.1573 90.6882 9.18921 88.1605 9.18921Z" fill="#2C6485"/>
<path d="M88.1605 165.405C86.2647 165.405 84.4465 164.679 83.106 163.387C81.7655 162.094 81.0124 160.341 81.0124 158.514L78.6296 27.5676H83.3951L85.7778 158.514C85.7778 159.123 86.0288 159.707 86.4757 160.138C86.9225 160.569 87.5286 160.811 88.1605 160.811C88.7924 160.811 89.3985 160.569 89.8453 160.138C90.2922 159.707 90.5432 159.123 90.5432 158.514L92.9259 27.5676H97.6914L95.3087 158.514C95.3087 160.341 94.5555 162.094 93.215 163.387C91.8745 164.679 90.0563 165.405 88.1605 165.405Z" fill="#2C6485"/>
<path d="M73.8642 163.108H69.0987C69.0987 150.22 82.156 143.673 92.64 138.435C100.074 134.691 107.222 131.13 107.222 126.696C107.222 122.262 98.3585 120.172 89.7807 118.035C77.8671 115.095 64.3333 111.741 64.3333 100.691C64.3333 91.3176 79.2015 88.7216 93.5931 86.1946C102.195 84.6784 112.917 82.8176 114.466 79.7851C114.466 79.5784 114.847 79.027 114.18 77.7635L118.397 75.673C118.973 76.5897 119.304 77.6294 119.363 78.6995C119.421 79.7696 119.204 80.837 118.731 81.8068C116.11 86.9297 106.078 88.6987 94.4508 90.7203C82.8232 92.7419 69.0987 95.1541 69.0987 100.691C69.0987 108.18 80.226 110.936 90.9721 113.601C101.718 116.266 111.988 118.793 111.988 126.696C111.988 133.932 103.672 138.182 94.8559 142.501C84.5387 147.67 73.8642 153 73.8642 163.108Z" fill="#2C6485"/>
<path d="M114.132 79.6703C113.255 79.6686 112.384 79.521 111.559 79.2338C109.446 78.4675 107.608 77.1269 106.269 75.3743C103.052 71.2622 103.052 66.1852 106.269 63.8879C107.156 63.2839 108.185 62.9043 109.264 62.7839C110.342 62.6635 111.434 62.8061 112.44 63.1987C114.554 63.965 116.391 65.3056 117.73 67.0581C120.947 71.1703 120.947 76.2473 117.73 78.5446C116.694 79.296 115.428 79.6922 114.132 79.6703ZM109.843 67.3568C109.591 67.3479 109.342 67.4119 109.128 67.5406C108.342 68.1149 108.342 70.3662 110.081 72.5946C110.851 73.624 111.909 74.4208 113.131 74.8919C113.397 75.0212 113.691 75.0885 113.989 75.0885C114.287 75.0885 114.581 75.0212 114.847 74.8919C115.633 74.3176 115.633 72.0662 113.894 69.8379C113.124 68.8085 112.066 68.0117 110.844 67.5406C110.523 67.4284 110.185 67.3664 109.843 67.3568Z" fill="#2C6485"/>
<path d="M107.222 163.108H102.457C102.457 153 91.7822 147.67 81.465 142.432C72.649 138.091 64.3333 133.932 64.3333 126.696C64.3333 118.793 74.5313 116.266 85.3489 113.601C96.1664 110.936 107.222 108.18 107.222 100.691C107.222 95.1541 93.1642 92.696 81.8701 90.7203C70.576 88.7446 60.2112 86.9297 57.5902 81.8068C57.1172 80.837 56.9001 79.7696 56.9583 78.6995C57.0165 77.6294 57.3482 76.5897 57.9238 75.673L62.1412 77.7635C61.474 79.027 61.76 79.5784 61.8553 79.7851C63.404 82.8176 74.1263 84.6784 82.7279 86.1946C97.0242 88.7216 111.988 91.3176 111.988 100.691C111.988 111.741 98.4538 115.095 86.5402 118.035C77.9624 120.172 69.0987 122.354 69.0987 126.696C69.0987 131.038 76.2469 134.691 83.681 138.435C94.1649 143.673 107.222 150.22 107.222 163.108Z" fill="#2C6485"/>
<path d="M62.1889 79.6703C60.893 79.6922 59.6266 79.296 58.591 78.5446C55.3981 76.2473 55.3981 71.1703 58.591 67.0581C59.9301 65.3056 61.7675 63.965 63.8806 63.1987C64.8868 62.8061 65.9792 62.6635 67.0575 62.7839C68.1357 62.9043 69.1654 63.2839 70.0518 63.8879C73.2447 66.1852 73.2447 71.2622 70.0518 75.3743C68.7128 77.1269 66.8754 78.4675 64.7622 79.2338C63.9369 79.521 63.0663 79.6686 62.1889 79.6703ZM66.4778 67.3568C66.1362 67.3664 65.7984 67.4284 65.477 67.5406C64.2549 68.0117 63.197 68.8085 62.4272 69.8379C60.6878 72.1352 60.6878 74.4324 61.4741 74.8919C61.7401 75.0212 62.0339 75.0885 62.3318 75.0885C62.6298 75.0885 62.9236 75.0212 63.1896 74.8919C64.4118 74.4208 65.4696 73.624 66.2395 72.5946C67.9789 70.2973 67.9789 68 67.1926 67.5406C66.9787 67.4119 66.7297 67.3479 66.4778 67.3568Z" fill="#2C6485"/>
<path d="M131.049 50.5406H94.856V45.946H131.049C133.577 45.946 136.001 44.9778 137.789 43.2545C139.576 41.5312 140.58 39.1939 140.58 36.7568H145.346C145.346 40.4125 143.839 43.9184 141.158 46.5034C138.477 49.0883 134.841 50.5406 131.049 50.5406Z" fill="#2C6485"/>
<path d="M142.963 39.054H133.432V34.4594H142.963C145.075 34.4579 147.126 33.7803 148.795 32.5329C150.464 31.2854 151.656 29.5389 152.184 27.5676H118.111L109.057 38.204C108.835 38.4676 108.556 38.6805 108.238 38.8274C107.921 38.9744 107.574 39.0518 107.222 39.054H95.0704V34.4594H106.102L115.157 23.823C115.378 23.5594 115.658 23.3465 115.975 23.1996C116.292 23.0526 116.639 22.9752 116.991 22.973H154.877C155.508 22.973 156.115 23.215 156.561 23.6458C157.008 24.0767 157.259 24.661 157.259 25.2703C157.259 28.9259 155.753 32.4319 153.072 35.0169C150.391 37.6018 146.755 39.054 142.963 39.054Z" fill="#2C6485"/>
<path d="M81.2506 39.054H69.0987C68.7468 39.0518 68.3997 38.9744 68.0825 38.8274C67.7653 38.6805 67.4858 38.4676 67.264 38.204L58.2097 27.5676H24.1369C24.6648 29.5389 25.8569 31.2854 27.5259 32.5329C29.1949 33.7803 31.2463 34.4579 33.358 34.4594H42.8889V39.054H33.358C29.5664 39.054 25.9301 37.6018 23.249 35.0169C20.5679 32.4319 19.0617 28.9259 19.0617 25.2703C19.0617 24.661 19.3127 24.0767 19.7596 23.6458C20.2064 23.215 20.8125 22.973 21.4444 22.973H59.3296C59.6815 22.9752 60.0286 23.0526 60.3458 23.1996C60.6631 23.3465 60.9426 23.5594 61.1643 23.823L70.2186 34.4594H81.2506V39.054Z" fill="#2C6485"/>
<path d="M81.465 50.5406H45.2716C41.48 50.5406 37.8436 49.0883 35.1626 46.5034C32.4815 43.9184 30.9753 40.4125 30.9753 36.7568H35.7407C35.7407 39.1939 36.7449 41.5312 38.5322 43.2545C40.3196 44.9778 42.7438 45.946 45.2716 45.946H81.465V50.5406Z" fill="#2C6485"/>
</svg>
