<svg width="433" height="170" viewBox="0 0 433 170" fill="none" xmlns="http://www.w3.org/2000/svg">
<path d="M88.1605 32.1622C85.333 32.1622 82.5689 31.3538 80.2179 29.8392C77.8669 28.3246 76.0345 26.1719 74.9524 23.6532C73.8704 21.1346 73.5873 18.3631 74.1389 15.6893C74.6905 13.0155 76.0521 10.5595 78.0515 8.63179C80.0509 6.70409 82.5982 5.39131 85.3714 4.85946C88.1446 4.32761 91.0191 4.60058 93.6315 5.64384C96.2438 6.6871 98.4765 8.4538 100.047 10.7205C101.618 12.9873 102.457 15.6522 102.457 18.3784C102.457 22.0341 100.951 25.54 98.2695 28.125C95.5884 30.71 91.9521 32.1622 88.1605 32.1622ZM88.1605 9.18921C86.2755 9.18921 84.4328 9.72814 82.8654 10.7379C81.2981 11.7476 80.0765 13.1827 79.3551 14.8618C78.6338 16.5409 78.445 18.3886 78.8128 20.1711C79.1805 21.9536 80.0882 23.591 81.4212 24.8761C82.7541 26.1613 84.4523 27.0364 86.3011 27.391C88.1499 27.7456 90.0663 27.5636 91.8078 26.8681C93.5493 26.1726 95.0379 24.9948 96.0851 23.4836C97.1324 21.9725 97.6914 20.1958 97.6914 18.3784C97.6914 15.9413 96.6872 13.604 94.8998 11.8807C93.1125 10.1573 90.6882 9.18921 88.1605 9.18921Z" fill="#2C6485"/>
<path d="M88.1605 165.405C86.2647 165.405 84.4465 164.679 83.106 163.387C81.7655 162.094 81.0124 160.341 81.0124 158.514L78.6296 27.5676H83.3951L85.7778 158.514C85.7778 159.123 86.0288 159.707 86.4757 160.138C86.9225 160.569 87.5286 160.811 88.1605 160.811C88.7924 160.811 89.3985 160.569 89.8453 160.138C90.2922 159.707 90.5432 159.123 90.5432 158.514L92.9259 27.5676H97.6914L95.3087 158.514C95.3087 160.341 94.5555 162.094 93.215 163.387C91.8745 164.679 90.0563 165.405 88.1605 165.405Z" fill="#2C6485"/>
<path d="M73.8642 163.108H69.0987C69.0987 150.22 82.156 143.673 92.64 138.435C100.074 134.691 107.222 131.13 107.222 126.696C107.222 122.262 98.3585 120.172 89.7807 118.035C77.8671 115.095 64.3333 111.741 64.3333 100.691C64.3333 91.3176 79.2015 88.7216 93.5931 86.1946C102.195 84.6784 112.917 82.8176 114.466 79.7851C114.466 79.5784 114.847 79.027 114.18 77.7635L118.397 75.673C118.973 76.5897 119.304 77.6294 119.363 78.6995C119.421 79.7696 119.204 80.837 118.731 81.8068C116.11 86.9297 106.078 88.6987 94.4508 90.7203C82.8232 92.7419 69.0987 95.1541 69.0987 100.691C69.0987 108.18 80.226 110.936 90.9721 113.601C101.718 116.266 111.988 118.793 111.988 126.696C111.988 133.932 103.672 138.182 94.8559 142.501C84.5387 147.67 73.8642 153 73.8642 163.108Z" fill="#2C6485"/>
<path d="M114.132 79.6703C113.255 79.6686 112.384 79.521 111.559 79.2338C109.446 78.4675 107.608 77.1269 106.269 75.3743C103.052 71.2622 103.052 66.1852 106.269 63.8879C107.156 63.2839 108.185 62.9043 109.264 62.7839C110.342 62.6635 111.434 62.8061 112.44 63.1987C114.554 63.965 116.391 65.3056 117.73 67.0581C120.947 71.1703 120.947 76.2473 117.73 78.5446C116.694 79.296 115.428 79.6922 114.132 79.6703ZM109.843 67.3568C109.591 67.3479 109.342 67.4119 109.128 67.5406C108.342 68.1149 108.342 70.3662 110.081 72.5946C110.851 73.624 111.909 74.4208 113.131 74.8919C113.397 75.0212 113.691 75.0885 113.989 75.0885C114.287 75.0885 114.581 75.0212 114.847 74.8919C115.633 74.3176 115.633 72.0662 113.894 69.8379C113.124 68.8085 112.066 68.0117 110.844 67.5406C110.523 67.4284 110.185 67.3664 109.843 67.3568Z" fill="#2C6485"/>
<path d="M107.222 163.108H102.457C102.457 153 91.7822 147.67 81.465 142.432C72.649 138.091 64.3333 133.932 64.3333 126.696C64.3333 118.793 74.5313 116.266 85.3489 113.601C96.1664 110.936 107.222 108.18 107.222 100.691C107.222 95.1541 93.1642 92.696 81.8701 90.7203C70.576 88.7446 60.2112 86.9297 57.5902 81.8068C57.1172 80.837 56.9001 79.7696 56.9583 78.6995C57.0165 77.6294 57.3482 76.5897 57.9238 75.673L62.1412 77.7635C61.474 79.027 61.76 79.5784 61.8553 79.7851C63.404 82.8176 74.1263 84.6784 82.7279 86.1946C97.0242 88.7216 111.988 91.3176 111.988 100.691C111.988 111.741 98.4538 115.095 86.5402 118.035C77.9624 120.172 69.0987 122.354 69.0987 126.696C69.0987 131.038 76.2469 134.691 83.681 138.435C94.1649 143.673 107.222 150.22 107.222 163.108Z" fill="#2C6485"/>
<path d="M62.1889 79.6703C60.893 79.6922 59.6266 79.296 58.591 78.5446C55.3981 76.2473 55.3981 71.1703 58.591 67.0581C59.9301 65.3056 61.7675 63.965 63.8806 63.1987C64.8868 62.8061 65.9792 62.6635 67.0575 62.7839C68.1357 62.9043 69.1654 63.2839 70.0518 63.8879C73.2447 66.1852 73.2447 71.2622 70.0518 75.3743C68.7128 77.1269 66.8754 78.4675 64.7622 79.2338C63.9369 79.521 63.0663 79.6686 62.1889 79.6703ZM66.4778 67.3568C66.1362 67.3664 65.7984 67.4284 65.477 67.5406C64.2549 68.0117 63.197 68.8085 62.4272 69.8379C60.6878 72.1352 60.6878 74.4324 61.4741 74.8919C61.7401 75.0212 62.0339 75.0885 62.3318 75.0885C62.6298 75.0885 62.9236 75.0212 63.1896 74.8919C64.4118 74.4208 65.4696 73.624 66.2395 72.5946C67.9789 70.2973 67.9789 68 67.1926 67.5406C66.9787 67.4119 66.7297 67.3479 66.4778 67.3568Z" fill="#2C6485"/>
<path d="M131.049 50.5406H94.856V45.946H131.049C133.577 45.946 136.001 44.9778 137.789 43.2545C139.576 41.5312 140.58 39.1939 140.58 36.7568H145.346C145.346 40.4125 143.839 43.9184 141.158 46.5034C138.477 49.0883 134.841 50.5406 131.049 50.5406Z" fill="#2C6485"/>
<path d="M142.963 39.054H133.432V34.4594H142.963C145.075 34.4579 147.126 33.7803 148.795 32.5329C150.464 31.2854 151.656 29.5389 152.184 27.5676H118.111L109.057 38.204C108.835 38.4676 108.556 38.6805 108.238 38.8274C107.921 38.9744 107.574 39.0518 107.222 39.054H95.0704V34.4594H106.102L115.157 23.823C115.378 23.5594 115.658 23.3465 115.975 23.1996C116.292 23.0526 116.639 22.9752 116.991 22.973H154.877C155.508 22.973 156.115 23.215 156.561 23.6458C157.008 24.0767 157.259 24.661 157.259 25.2703C157.259 28.9259 155.753 32.4319 153.072 35.0169C150.391 37.6018 146.755 39.054 142.963 39.054Z" fill="#2C6485"/>
<path d="M81.2506 39.054H69.0987C68.7468 39.0518 68.3997 38.9744 68.0825 38.8274C67.7653 38.6805 67.4858 38.4676 67.264 38.204L58.2097 27.5676H24.1369C24.6648 29.5389 25.8569 31.2854 27.5259 32.5329C29.1949 33.7803 31.2463 34.4579 33.358 34.4594H42.8889V39.054H33.358C29.5664 39.054 25.9301 37.6018 23.249 35.0169C20.5679 32.4319 19.0617 28.9259 19.0617 25.2703C19.0617 24.661 19.3127 24.0767 19.7596 23.6458C20.2064 23.215 20.8125 22.973 21.4444 22.973H59.3296C59.6815 22.9752 60.0286 23.0526 60.3458 23.1996C60.6631 23.3465 60.9426 23.5594 61.1643 23.823L70.2186 34.4594H81.2506V39.054Z" fill="#2C6485"/>
<path d="M81.465 50.5406H45.2716C41.48 50.5406 37.8436 49.0883 35.1626 46.5034C32.4815 43.9184 30.9753 40.4125 30.9753 36.7568H35.7407C35.7407 39.1939 36.7449 41.5312 38.5322 43.2545C40.3196 44.9778 42.7438 45.946 45.2716 45.946H81.465V50.5406Z" fill="#2C6485"/>
<path d="M249.155 34.02C250.768 34.02 252.455 34.1667 254.215 34.46C255.975 34.7167 257.35 35.065 258.34 35.505C258.67 35.615 258.872 35.7617 258.945 35.945C259.055 36.0917 259.147 36.3667 259.22 36.77L259.88 44.415C259.88 44.525 259.788 44.5983 259.605 44.635C259.422 44.6717 259.312 44.6167 259.275 44.47C258.028 41.5733 256.36 39.3367 254.27 37.76C252.18 36.1833 249.76 35.395 247.01 35.395C243.38 35.395 240.575 36.7333 238.595 39.41C236.615 42.0867 235.625 45.68 235.625 50.19C235.625 53.5633 236.157 56.6433 237.22 59.43C238.32 62.2167 239.842 64.435 241.785 66.085C243.765 67.6983 246.002 68.505 248.495 68.505C250.842 68.505 252.932 67.735 254.765 66.195C256.635 64.6183 258.303 62.235 259.77 59.045C259.807 58.8983 259.917 58.8433 260.1 58.88C260.32 58.9167 260.43 58.99 260.43 59.1L259.605 66.58C259.532 67.02 259.44 67.3133 259.33 67.46C259.257 67.57 259.055 67.6983 258.725 67.845C255.462 69.055 252.107 69.66 248.66 69.66C244.187 69.66 240.447 68.78 237.44 67.02C234.433 65.2233 232.215 62.9683 230.785 60.255C229.392 57.505 228.695 54.645 228.695 51.675C228.695 48.1917 229.63 45.1117 231.5 42.435C233.407 39.7583 235.918 37.6867 239.035 36.22C242.188 34.7533 245.562 34.02 249.155 34.02ZM273.462 69C273.279 69 273.187 68.89 273.187 68.67C273.187 68.45 273.279 68.34 273.462 68.34C274.122 68.34 274.819 67.8817 275.552 66.965C276.322 66.0117 277.257 64.27 278.357 61.74L284.737 46.945C284.81 46.7983 284.92 46.725 285.067 46.725C285.214 46.725 285.324 46.7983 285.397 46.945L292.217 61.465C293.17 63.555 293.904 65.0583 294.417 65.975C294.93 66.855 295.444 67.4783 295.957 67.845C296.47 68.175 297.149 68.34 297.992 68.34C298.175 68.34 298.267 68.45 298.267 68.67C298.267 68.89 298.175 69 297.992 69C297.332 69 296.305 68.9633 294.912 68.89C293.445 68.8167 292.382 68.78 291.722 68.78C291.135 68.78 290.182 68.8167 288.862 68.89C287.615 68.9633 286.735 69 286.222 69C286.075 69 286.002 68.89 286.002 68.67C286.002 68.45 286.075 68.34 286.222 68.34C287.029 68.34 287.615 68.2483 287.982 68.065C288.349 67.845 288.532 67.5333 288.532 67.13C288.532 66.8367 288.422 66.4517 288.202 65.975C288.019 65.4617 287.799 64.93 287.542 64.38L282.592 53.875L285.012 49.64L279.622 62.235C278.962 63.775 278.632 65.0217 278.632 65.975C278.632 67.5517 279.512 68.34 281.272 68.34C281.455 68.34 281.547 68.45 281.547 68.67C281.547 68.89 281.455 69 281.272 69C280.869 69 280.3 68.9633 279.567 68.89C278.834 68.8167 278.137 68.78 277.477 68.78C276.707 68.78 275.955 68.8167 275.222 68.89C274.562 68.9633 273.975 69 273.462 69ZM320.708 69.715C318.435 69.715 316.436 69.2017 314.713 68.175C313.026 67.1117 311.725 65.7 310.808 63.94C309.891 62.1433 309.433 60.2 309.433 58.11C309.433 55.7267 310.038 53.71 311.248 52.06C312.458 50.3733 313.998 49.1267 315.868 48.32C317.738 47.4767 319.663 47.055 321.643 47.055C323.916 47.055 325.896 47.5867 327.583 48.65C329.27 49.7133 330.553 51.125 331.433 52.885C332.35 54.6083 332.808 56.46 332.808 58.44C332.808 60.64 332.258 62.6017 331.158 64.325C330.058 66.0117 328.573 67.3317 326.703 68.285C324.87 69.2383 322.871 69.715 320.708 69.715ZM322.358 68.56C323.788 68.56 324.87 67.8633 325.603 66.47C326.373 65.04 326.758 63.005 326.758 60.365C326.758 57.7983 326.428 55.5983 325.768 53.765C325.108 51.9317 324.246 50.5567 323.183 49.64C322.12 48.6867 320.983 48.21 319.773 48.21C316.84 48.21 315.373 50.8317 315.373 56.075C315.373 58.5317 315.685 60.7133 316.308 62.62C316.931 64.49 317.775 65.9567 318.838 67.02C319.901 68.0467 321.075 68.56 322.358 68.56ZM355.867 47.77C357.26 47.6967 358.287 47.66 358.947 47.66C364.154 47.66 366.757 49.0533 366.757 51.84C366.757 52.8667 366.299 53.875 365.382 54.865C364.502 55.8183 363.127 56.79 361.257 57.78L360.597 57.34C361 56.3133 361.202 55.0117 361.202 53.435C361.202 51.7483 360.909 50.5567 360.322 49.86C359.772 49.1267 358.874 48.76 357.627 48.76C356.747 48.76 356.16 48.98 355.867 49.42C355.61 49.86 355.482 50.8317 355.482 52.335V64.545C355.482 65.755 355.702 66.635 356.142 67.185C356.619 67.6983 357.517 67.955 358.837 67.955C360.414 67.955 361.569 67.5883 362.302 66.855C363.035 66.085 363.402 64.9483 363.402 63.445C363.402 61.8317 362.98 60.5667 362.137 59.65C361.33 58.6967 360.029 58.22 358.232 58.22H353.227L353.172 57.175H360.157C366.097 57.175 369.067 58.88 369.067 62.29C369.067 64.27 368.205 65.9017 366.482 67.185C364.759 68.4683 362.522 69.11 359.772 69.11C359.332 69.11 358.342 69.0733 356.802 69C355.042 68.9267 353.777 68.89 353.007 68.89L349.817 68.945C349.23 68.9817 348.405 69 347.342 69C347.232 69 347.177 68.89 347.177 68.67C347.177 68.45 347.232 68.34 347.342 68.34C348.222 68.34 348.864 68.2483 349.267 68.065C349.707 67.8817 350 67.5333 350.147 67.02C350.294 66.47 350.367 65.645 350.367 64.545V52.225C350.367 51.125 350.294 50.3183 350.147 49.805C350 49.255 349.707 48.8883 349.267 48.705C348.864 48.5217 348.24 48.43 347.397 48.43C347.287 48.43 347.232 48.32 347.232 48.1C347.232 47.88 347.287 47.77 347.397 47.77L353.007 47.825L355.867 47.77ZM394.646 69.715C392.373 69.715 390.375 69.2017 388.651 68.175C386.965 67.1117 385.663 65.7 384.746 63.94C383.83 62.1433 383.371 60.2 383.371 58.11C383.371 55.7267 383.976 53.71 385.186 52.06C386.396 50.3733 387.936 49.1267 389.806 48.32C391.676 47.4767 393.601 47.055 395.581 47.055C397.855 47.055 399.835 47.5867 401.521 48.65C403.208 49.7133 404.491 51.125 405.371 52.885C406.288 54.6083 406.746 56.46 406.746 58.44C406.746 60.64 406.196 62.6017 405.096 64.325C403.996 66.0117 402.511 67.3317 400.641 68.285C398.808 69.2383 396.81 69.715 394.646 69.715ZM396.296 68.56C397.726 68.56 398.808 67.8633 399.541 66.47C400.311 65.04 400.696 63.005 400.696 60.365C400.696 57.7983 400.366 55.5983 399.706 53.765C399.046 51.9317 398.185 50.5567 397.121 49.64C396.058 48.6867 394.921 48.21 393.711 48.21C390.778 48.21 389.311 50.8317 389.311 56.075C389.311 58.5317 389.623 60.7133 390.246 62.62C390.87 64.49 391.713 65.9567 392.776 67.02C393.84 68.0467 395.013 68.56 396.296 68.56ZM236.285 114.77C237.678 114.697 238.705 114.66 239.365 114.66C244.572 114.66 247.175 116.053 247.175 118.84C247.175 119.867 246.717 120.875 245.8 121.865C244.92 122.818 243.545 123.79 241.675 124.78L241.015 124.34C241.418 123.313 241.62 122.012 241.62 120.435C241.62 118.748 241.327 117.557 240.74 116.86C240.19 116.127 239.292 115.76 238.045 115.76C237.165 115.76 236.578 115.98 236.285 116.42C236.028 116.86 235.9 117.832 235.9 119.335V131.545C235.9 132.755 236.12 133.635 236.56 134.185C237.037 134.698 237.935 134.955 239.255 134.955C240.832 134.955 241.987 134.588 242.72 133.855C243.453 133.085 243.82 131.948 243.82 130.445C243.82 128.832 243.398 127.567 242.555 126.65C241.748 125.697 240.447 125.22 238.65 125.22H233.645L233.59 124.175H240.575C246.515 124.175 249.485 125.88 249.485 129.29C249.485 131.27 248.623 132.902 246.9 134.185C245.177 135.468 242.94 136.11 240.19 136.11C239.75 136.11 238.76 136.073 237.22 136C235.46 135.927 234.195 135.89 233.425 135.89L230.235 135.945C229.648 135.982 228.823 136 227.76 136C227.65 136 227.595 135.89 227.595 135.67C227.595 135.45 227.65 135.34 227.76 135.34C228.64 135.34 229.282 135.248 229.685 135.065C230.125 134.882 230.418 134.533 230.565 134.02C230.712 133.47 230.785 132.645 230.785 131.545V119.225C230.785 118.125 230.712 117.318 230.565 116.805C230.418 116.255 230.125 115.888 229.685 115.705C229.282 115.522 228.658 115.43 227.815 115.43C227.705 115.43 227.65 115.32 227.65 115.1C227.65 114.88 227.705 114.77 227.815 114.77L233.425 114.825L236.285 114.77ZM263.074 151.125C262.964 151.125 262.909 151.015 262.909 150.795C262.909 150.575 262.964 150.465 263.074 150.465C263.954 150.465 264.596 150.355 264.999 150.135C265.439 149.952 265.733 149.585 265.879 149.035C266.063 148.522 266.154 147.733 266.154 146.67V119.225C266.154 117.685 265.879 116.677 265.329 116.2C264.816 115.687 263.881 115.43 262.524 115.43C262.451 115.43 262.414 115.32 262.414 115.1C262.414 114.88 262.451 114.77 262.524 114.77H270.059C270.573 114.77 270.903 114.862 271.049 115.045C271.196 115.228 271.269 115.558 271.269 116.035V146.67C271.269 147.77 271.379 148.577 271.599 149.09C271.856 149.603 272.314 149.952 272.974 150.135C273.671 150.355 274.734 150.465 276.164 150.465C276.274 150.465 276.329 150.575 276.329 150.795C276.329 151.015 276.274 151.125 276.164 151.125C274.808 151.125 273.744 151.107 272.974 151.07L268.629 151.015L265.384 151.07C264.834 151.107 264.064 151.125 263.074 151.125ZM275.999 136.715C274.679 136.715 273.524 136.605 272.534 136.385C271.544 136.202 270.279 135.853 268.739 135.34L270.664 131.875C271.581 133.012 272.498 133.873 273.414 134.46C274.368 135.047 275.578 135.34 277.044 135.34C280.748 135.34 282.599 132.187 282.599 125.88C282.599 123.093 281.939 120.948 280.619 119.445C279.336 117.905 277.723 117.135 275.779 117.135C274.496 117.135 273.378 117.447 272.424 118.07C271.471 118.657 270.444 119.573 269.344 120.82L268.794 120.16C270.664 118.033 272.443 116.493 274.129 115.54C275.853 114.55 277.613 114.055 279.409 114.055C280.949 114.055 282.379 114.458 283.699 115.265C285.056 116.072 286.138 117.245 286.944 118.785C287.751 120.325 288.154 122.122 288.154 124.175C288.154 127.108 287.549 129.528 286.339 131.435C285.129 133.305 283.589 134.662 281.719 135.505C279.886 136.312 277.979 136.715 275.999 136.715ZM318.397 136.33C318.25 136.403 318.067 136.44 317.847 136.44C317.113 136.44 316.435 135.982 315.812 135.065C315.188 134.112 314.877 132.865 314.877 131.325V121.975C314.877 119.628 314.675 117.923 314.272 116.86C313.905 115.797 313.263 115.265 312.347 115.265C310.403 115.265 309.303 116.768 309.047 119.775C308.937 120.875 308.607 121.663 308.057 122.14C307.543 122.617 306.81 122.855 305.857 122.855C304.94 122.855 304.262 122.672 303.822 122.305C303.418 121.902 303.217 121.388 303.217 120.765C303.217 119.665 303.858 118.62 305.142 117.63C306.425 116.603 307.965 115.778 309.762 115.155C311.595 114.532 313.208 114.22 314.602 114.22C316.215 114.22 317.517 114.733 318.507 115.76C319.533 116.75 320.047 118.272 320.047 120.325V130.06C320.047 131.123 320.23 131.948 320.597 132.535C321 133.122 321.55 133.415 322.247 133.415C322.76 133.415 323.292 133.287 323.842 133.03H323.897C324.043 133.03 324.135 133.122 324.172 133.305C324.245 133.452 324.208 133.562 324.062 133.635L318.397 136.33ZM307.837 136.385C306.26 136.385 305.068 136.037 304.262 135.34C303.455 134.643 303.052 133.672 303.052 132.425C303.052 131.435 303.29 130.647 303.767 130.06C304.243 129.437 304.83 128.96 305.527 128.63C306.26 128.263 307.268 127.86 308.552 127.42L309.927 126.925L315.427 124.89L315.647 125.715L312.512 127.145C312.402 127.182 312.035 127.328 311.412 127.585C310.788 127.805 310.238 128.19 309.762 128.74C309.322 129.29 309.102 129.932 309.102 130.665C309.102 131.545 309.377 132.242 309.927 132.755C310.513 133.232 311.173 133.47 311.907 133.47C312.493 133.47 313.098 133.268 313.722 132.865L316.472 130.995L316.527 131.875L312.677 134.625C311.833 135.248 311.045 135.707 310.312 136C309.578 136.257 308.753 136.385 307.837 136.385ZM349.796 119.225C349.796 118.125 349.741 117.318 349.631 116.805C349.558 116.255 349.374 115.888 349.081 115.705C348.824 115.522 348.403 115.43 347.816 115.43C347.706 115.43 347.651 115.32 347.651 115.1C347.651 114.88 347.706 114.77 347.816 114.77C348.659 114.77 349.338 114.788 349.851 114.825L352.436 114.88L355.516 114.825C356.103 114.788 356.891 114.77 357.881 114.77C357.991 114.77 358.046 114.88 358.046 115.1C358.046 115.32 357.991 115.43 357.881 115.43C357.038 115.43 356.414 115.54 356.011 115.76C355.608 115.98 355.333 116.365 355.186 116.915C355.039 117.428 354.966 118.235 354.966 119.335V131.545C354.966 132.645 355.039 133.47 355.186 134.02C355.333 134.533 355.608 134.882 356.011 135.065C356.414 135.248 357.038 135.34 357.881 135.34C357.991 135.34 358.046 135.45 358.046 135.67C358.046 135.89 357.991 136 357.881 136C356.854 136 356.066 135.982 355.516 135.945L352.436 135.89L349.191 135.945C348.604 135.982 347.798 136 346.771 136C346.698 136 346.661 135.89 346.661 135.67C346.661 135.45 346.698 135.34 346.771 135.34C347.651 135.34 348.293 135.248 348.696 135.065C349.136 134.882 349.429 134.533 349.576 134.02C349.723 133.47 349.796 132.645 349.796 131.545V119.225ZM342.261 120.82C342.261 122.47 342.518 123.662 343.031 124.395C343.581 125.092 344.443 125.44 345.616 125.44C346.753 125.44 347.688 125.348 348.421 125.165C349.191 124.945 349.979 124.615 350.786 124.175L351.006 124.725C349.649 125.898 348.274 126.76 346.881 127.31C345.524 127.86 344.241 128.135 343.031 128.135C341.198 128.135 339.768 127.622 338.741 126.595C337.714 125.568 337.201 124.047 337.201 122.03V119.225C337.201 118.125 337.146 117.318 337.036 116.805C336.963 116.255 336.816 115.888 336.596 115.705C336.376 115.522 336.009 115.43 335.496 115.43C335.423 115.43 335.386 115.32 335.386 115.1C335.386 114.88 335.423 114.77 335.496 114.77C336.303 114.77 336.926 114.788 337.366 114.825L339.841 114.88L342.371 114.825C342.848 114.788 343.508 114.77 344.351 114.77C344.424 114.77 344.461 114.88 344.461 115.1C344.461 115.32 344.424 115.43 344.351 115.43C343.471 115.43 342.903 115.687 342.646 116.2C342.389 116.713 342.261 117.758 342.261 119.335V120.82ZM388.253 136.33C388.106 136.403 387.923 136.44 387.703 136.44C386.97 136.44 386.291 135.982 385.668 135.065C385.045 134.112 384.733 132.865 384.733 131.325V121.975C384.733 119.628 384.531 117.923 384.128 116.86C383.761 115.797 383.12 115.265 382.203 115.265C380.26 115.265 379.16 116.768 378.903 119.775C378.793 120.875 378.463 121.663 377.913 122.14C377.4 122.617 376.666 122.855 375.713 122.855C374.796 122.855 374.118 122.672 373.678 122.305C373.275 121.902 373.073 121.388 373.073 120.765C373.073 119.665 373.715 118.62 374.998 117.63C376.281 116.603 377.821 115.778 379.618 115.155C381.451 114.532 383.065 114.22 384.458 114.22C386.071 114.22 387.373 114.733 388.363 115.76C389.39 116.75 389.903 118.272 389.903 120.325V130.06C389.903 131.123 390.086 131.948 390.453 132.535C390.856 133.122 391.406 133.415 392.103 133.415C392.616 133.415 393.148 133.287 393.698 133.03H393.753C393.9 133.03 393.991 133.122 394.028 133.305C394.101 133.452 394.065 133.562 393.918 133.635L388.253 136.33ZM377.693 136.385C376.116 136.385 374.925 136.037 374.118 135.34C373.311 134.643 372.908 133.672 372.908 132.425C372.908 131.435 373.146 130.647 373.623 130.06C374.1 129.437 374.686 128.96 375.383 128.63C376.116 128.263 377.125 127.86 378.408 127.42L379.783 126.925L385.283 124.89L385.503 125.715L382.368 127.145C382.258 127.182 381.891 127.328 381.268 127.585C380.645 127.805 380.095 128.19 379.618 128.74C379.178 129.29 378.958 129.932 378.958 130.665C378.958 131.545 379.233 132.242 379.783 132.755C380.37 133.232 381.03 133.47 381.763 133.47C382.35 133.47 382.955 133.268 383.578 132.865L386.328 130.995L386.383 131.875L382.533 134.625C381.69 135.248 380.901 135.707 380.168 136C379.435 136.257 378.61 136.385 377.693 136.385Z" fill="#2C6485"/>
</svg>
